<?xml version="1.0" standalone="no"?>
<!DOCTYPE svg PUBLIC "-//W3C//DTD SVG 1.1//EN" "http://www.w3.org/Graphics/SVG/1.1/DTD/svg11.dtd">
<svg xmlns="http://www.w3.org/2000/svg" xmlns:xlink="http://www.w3.org/1999/xlink" width="375" zoomAndPan="magnify" viewBox="0 0 375 374.999991" height="375" preserveAspectRatio="xMidYMid meet" version="1.0"><defs><g/><clipPath id="id1"><path d="M 133.488281 85.140625 L 241.488281 85.140625 L 241.488281 232.132812 L 133.488281 232.132812 Z M 133.488281 85.140625 " clip-rule="nonzero"/></clipPath></defs><rect x="-37.5" width="450" fill="#ffffff" y="-37.499999" height="449.999989" fill-opacity="1"/><rect x="-37.5" width="450" fill="#ffffff" y="-37.499999" height="449.999989" fill-opacity="1"/><rect x="-37.5" width="450" fill="#ffffff" y="-37.499999" height="449.999989" fill-opacity="1"/><g clip-path="url(#id1)"><path fill="#14132d" d="M 173.742188 85.132812 C 168.355469 88.046875 163.222656 92.800781 158.707031 99.136719 C 152.105469 108.421875 147.917969 119.746094 147.796875 128.691406 C 147.601562 142.183594 156.765625 147.214844 163.800781 149.683594 C 164.992188 150.105469 166.234375 149.238281 166.285156 147.972656 C 166.910156 131.964844 173.660156 121.484375 187.441406 121.484375 C 201.867188 121.484375 208.09375 132.296875 208.613281 148.449219 C 208.652344 149.648438 209.777344 150.5 210.945312 150.210938 C 218.277344 148.394531 226.917969 143.539062 227.085938 129.5 C 227.214844 120.550781 223.355469 109.144531 217.011719 99.722656 C 212.683594 93.300781 207.703125 88.453125 202.410156 85.425781 C 225.132812 91 241.449219 108.863281 241.152344 129.636719 C 240.992188 142.371094 234.667969 151.882812 222.351562 157.902344 L 220.613281 158.753906 L 222.351562 159.601562 C 235.011719 165.765625 241.339844 175.578125 241.152344 188.753906 C 240.855469 209.539062 224.039062 227.0625 201.179688 232.152344 C 206.5625 229.238281 211.683594 224.496094 216.191406 218.164062 C 222.796875 208.875 226.972656 197.546875 227.078125 188.601562 C 227.121094 185.136719 226.496094 182.039062 225.171875 179.160156 C 224.9375 178.652344 224.371094 178.386719 223.839844 178.546875 C 223.332031 178.691406 223 179.175781 223.03125 179.703125 C 224.171875 198.007812 212.046875 211.636719 197.925781 215.945312 C 201.207031 213.585938 204.316406 210.050781 207.082031 205.476562 C 211.535156 198.101562 214.351562 189.113281 214.433594 182.015625 C 214.550781 173.070312 210.3125 169.277344 208.019531 167.679688 C 207.464844 167.292969 206.699219 167.613281 206.578125 168.273438 C 205.304688 174.996094 199.132812 203.992188 187.441406 203.992188 C 180.457031 203.992188 172.703125 191.886719 168.316406 168.214844 C 168.183594 167.511719 167.351562 167.207031 166.796875 167.664062 C 163.472656 170.390625 160.578125 173.976562 160.484375 181.378906 C 160.390625 188.480469 162.992188 197.535156 167.273438 205.015625 C 169.921875 209.644531 172.949219 213.25 176.171875 215.683594 C 172.601562 214.496094 149.699219 204.816406 151.867188 179.625 C 151.910156 179.097656 151.585938 178.613281 151.085938 178.460938 L 151.078125 178.460938 C 150.546875 178.300781 149.980469 178.566406 149.75 179.074219 C 148.492188 181.820312 147.859375 184.679688 147.8125 187.792969 C 147.679688 196.746094 151.542969 208.164062 157.890625 217.585938 C 162.222656 224.015625 167.222656 228.867188 172.523438 231.894531 C 149.796875 226.351562 133.476562 208.484375 133.769531 187.679688 C 133.929688 174.914062 140.242188 165.40625 152.519531 159.414062 L 154.253906 158.566406 L 152.519531 157.714844 C 139.871094 151.511719 133.5625 141.707031 133.753906 128.558594 C 134.03125 107.75 150.855469 90.21875 173.742188 85.132812 Z M 173.742188 85.132812 " fill-opacity="1" fill-rule="nonzero"/></g><path fill="#e51c47" d="M 187.457031 198.449219 C 184.363281 198.449219 179.800781 191.871094 175.882812 179.441406 C 173.457031 171.746094 179.128906 163.800781 187.203125 163.773438 C 187.253906 163.773438 187.304688 163.773438 187.355469 163.773438 L 187.453125 163.773438 C 187.503906 163.773438 187.550781 163.773438 187.601562 163.773438 C 195.714844 163.816406 201.382812 171.785156 198.980469 179.535156 C 195.347656 191.230469 191.09375 198.449219 187.457031 198.449219 Z M 187.457031 198.449219 " fill-opacity="1" fill-rule="nonzero"/><g fill="#14132d" fill-opacity="1"><g transform="translate(99.354615, 267.487864)"><g><path d="M 21.320312 -17.324219 L 15.292969 -17.324219 L 11.800781 -3.742188 L 8.3125 -17.324219 L 2.132812 -17.324219 L 2.132812 0 L 6.078125 0 L 6.078125 -7.683594 C 6.078125 -9.367188 6.078125 -11.625 6.027344 -13.410156 C 6.351562 -11.625 6.929688 -9.367188 7.40625 -7.707031 L 9.640625 0 L 13.808594 0 L 15.996094 -7.707031 C 16.496094 -9.367188 17.074219 -11.652344 17.425781 -13.433594 C 17.375 -11.652344 17.375 -9.367188 17.375 -7.683594 L 17.375 0 L 21.320312 0 Z M 21.320312 -17.324219 "/></g></g></g><g fill="#14132d" fill-opacity="1"><g transform="translate(122.171912, 267.487864)"><g><path d="M 8.035156 -17.675781 C 4.671875 -17.675781 1.683594 -15.792969 1.683594 -12.554688 C 1.683594 -9.242188 3.941406 -8.011719 7.660156 -7.082031 C 10.019531 -6.527344 10.824219 -5.699219 10.824219 -4.496094 C 10.824219 -3.316406 9.691406 -2.5625 8.261719 -2.5625 C 6.679688 -2.5625 5.296875 -3.414062 4.945312 -5.199219 L 0.980469 -5.199219 C 1.28125 -1.457031 4.09375 0.351562 8.335938 0.351562 C 11.800781 0.351562 14.941406 -1.457031 14.941406 -4.820312 C 14.941406 -7.558594 13.28125 -9.367188 9.464844 -10.269531 C 6.679688 -10.921875 5.800781 -11.625 5.800781 -12.933594 C 5.800781 -14.1875 6.679688 -14.765625 7.910156 -14.765625 C 9.566406 -14.765625 10.472656 -13.734375 10.671875 -12.128906 L 14.640625 -12.128906 C 14.261719 -15.265625 12.355469 -17.675781 8.035156 -17.675781 Z M 8.035156 -17.675781 "/></g></g></g><g fill="#14132d" fill-opacity="1"><g transform="translate(137.634458, 267.487864)"><g><path d="M 12.757812 -9.367188 C 14.488281 -9.96875 15.390625 -11.175781 15.390625 -12.855469 C 15.390625 -15.167969 13.785156 -16.875 10.972656 -17.226562 C 10.09375 -17.324219 9.640625 -17.324219 8.738281 -17.324219 L 2.132812 -17.324219 L 2.132812 0 L 8.714844 0 C 9.742188 0 10.320312 0 11.175781 -0.101562 C 13.507812 -0.402344 16.019531 -1.984375 16.019531 -5.199219 C 16.019531 -7.382812 14.964844 -8.789062 12.757812 -9.367188 Z M 6.078125 -14.261719 L 8.363281 -14.261719 C 8.761719 -14.261719 9.214844 -14.238281 9.566406 -14.1875 C 10.597656 -14.035156 11.273438 -13.484375 11.273438 -12.328125 C 11.273438 -11.175781 10.671875 -10.597656 9.59375 -10.421875 C 9.242188 -10.371094 8.839844 -10.34375 8.4375 -10.34375 L 6.078125 -10.34375 Z M 9.96875 -3.113281 C 9.640625 -3.089844 9.242188 -3.089844 8.839844 -3.089844 L 6.078125 -3.089844 L 6.078125 -7.457031 L 8.6875 -7.457031 C 9.089844 -7.457031 9.492188 -7.457031 9.894531 -7.40625 C 11 -7.308594 11.902344 -6.652344 11.902344 -5.246094 C 11.902344 -3.941406 11 -3.1875 9.96875 -3.113281 Z M 9.96875 -3.113281 "/></g></g></g><g fill="#14132d" fill-opacity="1"><g transform="translate(154.402283, 267.487864)"><g><path d="M 15.945312 -14.261719 L 15.945312 -17.324219 L 0.476562 -17.324219 L 0.476562 -14.261719 L 6.253906 -14.261719 L 6.253906 0 L 10.167969 0 L 10.167969 -14.261719 Z M 15.945312 -14.261719 "/></g></g></g><g fill="#14132d" fill-opacity="1"><g transform="translate(170.140952, 267.487864)"><g><path d="M 14.992188 -3.089844 L 6.078125 -3.089844 L 6.078125 -7.15625 L 14.160156 -7.15625 L 14.160156 -10.21875 L 6.078125 -10.21875 L 6.078125 -14.261719 L 14.738281 -14.261719 L 14.738281 -17.324219 L 2.132812 -17.324219 L 2.132812 0 L 14.992188 0 Z M 14.992188 -3.089844 "/></g></g></g><g fill="#14132d" fill-opacity="1"><g transform="translate(185.854513, 267.487864)"><g/></g></g><g fill="#e51c47" fill-opacity="1"><g transform="translate(190.514765, 267.487864)"><g><path d="M 10.269531 -9.089844 L 17.851562 -17.324219 L 13.15625 -17.324219 L 6.078125 -9.289062 L 6.078125 -17.324219 L 2.132812 -17.324219 L 2.132812 0 L 6.078125 0 L 6.078125 -5.398438 L 7.40625 -6.878906 L 12.554688 0 L 17.550781 0 Z M 10.269531 -9.089844 "/></g></g></g><g fill="#e51c47" fill-opacity="1"><g transform="translate(208.336854, 267.487864)"><g><path d="M 14.992188 -3.089844 L 6.078125 -3.089844 L 6.078125 -7.15625 L 14.160156 -7.15625 L 14.160156 -10.21875 L 6.078125 -10.21875 L 6.078125 -14.261719 L 14.738281 -14.261719 L 14.738281 -17.324219 L 2.132812 -17.324219 L 2.132812 0 L 14.992188 0 Z M 14.992188 -3.089844 "/></g></g></g><g fill="#e51c47" fill-opacity="1"><g transform="translate(224.050415, 267.487864)"><g><path d="M 14.992188 -3.089844 L 6.078125 -3.089844 L 6.078125 -7.15625 L 14.160156 -7.15625 L 14.160156 -10.21875 L 6.078125 -10.21875 L 6.078125 -14.261719 L 14.738281 -14.261719 L 14.738281 -17.324219 L 2.132812 -17.324219 L 2.132812 0 L 14.992188 0 Z M 14.992188 -3.089844 "/></g></g></g><g fill="#e51c47" fill-opacity="1"><g transform="translate(239.763976, 267.487864)"><g><path d="M 10.570312 -17.226562 C 9.691406 -17.324219 9.289062 -17.324219 8.363281 -17.324219 L 2.132812 -17.324219 L 2.132812 0 L 8.335938 0 C 9.265625 0 9.667969 0 10.546875 -0.101562 C 14.5625 -0.578125 17.804688 -3.539062 17.804688 -8.890625 C 17.804688 -14.238281 14.589844 -16.773438 10.570312 -17.226562 Z M 9.59375 -3.140625 C 9.015625 -3.089844 8.5625 -3.089844 7.835938 -3.089844 L 6.078125 -3.089844 L 6.078125 -14.261719 L 7.859375 -14.261719 C 8.585938 -14.261719 9.039062 -14.238281 9.617188 -14.1875 C 12.054688 -13.910156 13.660156 -12.101562 13.660156 -8.839844 C 13.660156 -5.5 12.027344 -3.414062 9.59375 -3.140625 Z M 9.59375 -3.140625 "/></g></g></g><g fill="#e51c47" fill-opacity="1"><g transform="translate(258.314012, 267.487864)"><g><path d="M 11.703125 -4.894531 L 13.28125 0 L 17.550781 0 L 11.375 -17.324219 L 6.503906 -17.324219 L 0.25 0 L 4.445312 0 L 6.050781 -4.894531 Z M 8.890625 -13.910156 L 10.722656 -7.984375 L 7.03125 -7.984375 Z M 8.890625 -13.910156 "/></g></g></g><g fill="#11323b" fill-opacity="1"><g transform="translate(125.841836, 286.723136)"><g><path d="M 9.035156 -6.597656 L 8.167969 -6.597656 L 6.703125 -0.726562 L 5.210938 -6.503906 L 4.101562 -6.503906 L 2.574219 -0.734375 L 1.1875 -6.597656 L 0.25 -6.597656 L 1.988281 0 L 3.078125 0 L 4.628906 -5.691406 L 6.121094 0 L 7.199219 0 Z M 9.035156 -6.597656 "/></g></g></g><g fill="#11323b" fill-opacity="1"><g transform="translate(136.09328, 286.723136)"><g><path d="M 5.34375 -0.667969 L 1.777344 -0.667969 L 1.777344 -2.964844 L 4.964844 -2.964844 L 4.964844 -3.632812 L 1.777344 -3.632812 L 1.777344 -5.929688 L 5.25 -5.929688 L 5.25 -6.597656 L 0.957031 -6.597656 L 0.957031 0 L 5.34375 0 Z M 5.34375 -0.667969 "/></g></g></g><g fill="#11323b" fill-opacity="1"><g transform="translate(142.854436, 286.723136)"><g/></g></g><g fill="#11323b" fill-opacity="1"><g transform="translate(146.067936, 286.723136)"><g><path d="M 4.265625 -3.507812 C 4.945312 -3.738281 5.382812 -4.160156 5.382812 -4.953125 C 5.382812 -5.890625 4.800781 -6.417969 3.757812 -6.558594 C 3.441406 -6.597656 3.214844 -6.597656 2.898438 -6.597656 L 0.957031 -6.597656 L 0.957031 0 L 3.078125 0 C 3.386719 0 3.59375 0 3.921875 -0.046875 C 4.789062 -0.183594 5.621094 -0.734375 5.621094 -1.941406 C 5.621094 -2.851562 5.136719 -3.308594 4.265625 -3.507812 Z M 1.777344 -5.929688 L 2.964844 -5.929688 C 3.117188 -5.929688 3.316406 -5.929688 3.492188 -5.910156 C 4.082031 -5.84375 4.503906 -5.535156 4.503906 -4.886719 C 4.503906 -4.304688 4.253906 -3.902344 3.578125 -3.796875 C 3.386719 -3.769531 3.222656 -3.757812 3.050781 -3.757812 L 1.777344 -3.757812 Z M 3.664062 -0.6875 C 3.539062 -0.679688 3.355469 -0.667969 3.203125 -0.667969 L 1.777344 -0.667969 L 1.777344 -3.089844 L 3.144531 -3.089844 C 3.300781 -3.089844 3.453125 -3.078125 3.671875 -3.050781 C 4.304688 -2.964844 4.742188 -2.667969 4.742188 -1.855469 C 4.742188 -1.136719 4.292969 -0.746094 3.664062 -0.6875 Z M 3.664062 -0.6875 "/></g></g></g><g fill="#11323b" fill-opacity="1"><g transform="translate(153.211588, 286.723136)"><g><path d="M 5.851562 -6.597656 L 5.03125 -6.597656 L 5.03125 -2.515625 C 5.03125 -2.304688 5.03125 -2.105469 5.011719 -1.929688 C 4.933594 -1.101562 4.390625 -0.515625 3.375 -0.515625 C 2.363281 -0.515625 1.816406 -1.101562 1.742188 -1.929688 C 1.722656 -2.105469 1.722656 -2.304688 1.722656 -2.515625 L 1.722656 -6.597656 L 0.898438 -6.597656 L 0.898438 -2.4375 C 0.898438 -2.226562 0.898438 -2.035156 0.917969 -1.84375 C 1.011719 -0.746094 1.757812 0.132812 3.375 0.132812 C 4.992188 0.132812 5.738281 -0.746094 5.832031 -1.84375 C 5.851562 -2.035156 5.851562 -2.226562 5.851562 -2.4375 Z M 5.851562 -6.597656 "/></g></g></g><g fill="#11323b" fill-opacity="1"><g transform="translate(160.881177, 286.723136)"><g><path d="M 1.777344 0 L 1.777344 -6.597656 L 0.957031 -6.597656 L 0.957031 0 Z M 1.777344 0 "/></g></g></g><g fill="#11323b" fill-opacity="1"><g transform="translate(164.553677, 286.723136)"><g><path d="M 5.34375 -0.667969 L 1.777344 -0.667969 L 1.777344 -6.597656 L 0.957031 -6.597656 L 0.957031 0 L 5.34375 0 Z M 5.34375 -0.667969 "/></g></g></g><g fill="#11323b" fill-opacity="1"><g transform="translate(171.200085, 286.723136)"><g><path d="M 3.804688 -6.558594 C 3.472656 -6.597656 3.316406 -6.597656 2.964844 -6.597656 L 0.957031 -6.597656 L 0.957031 0 L 2.917969 0 C 3.269531 0 3.421875 0 3.757812 -0.0390625 C 5.289062 -0.230469 6.417969 -1.433594 6.417969 -3.375 C 6.417969 -5.34375 5.335938 -6.367188 3.804688 -6.558594 Z M 3.671875 -0.71875 C 3.460938 -0.679688 3.214844 -0.667969 2.867188 -0.667969 L 1.777344 -0.667969 L 1.777344 -5.929688 L 2.917969 -5.929688 C 3.261719 -5.929688 3.507812 -5.917969 3.71875 -5.882812 C 4.839844 -5.699219 5.515625 -4.839844 5.515625 -3.375 C 5.515625 -1.816406 4.789062 -0.898438 3.671875 -0.71875 Z M 3.671875 -0.71875 "/></g></g></g><g fill="#11323b" fill-opacity="1"><g transform="translate(179.127865, 286.723136)"><g/></g></g><g fill="#11323b" fill-opacity="1"><g transform="translate(182.341365, 286.723136)"><g><path d="M 3.566406 -6.730469 C 1.691406 -6.730469 0.449219 -5.277344 0.449219 -3.269531 C 0.449219 -1.339844 1.519531 0.132812 3.441406 0.132812 C 5.183594 0.132812 6.070312 -0.910156 6.195312 -2.105469 L 6.207031 -2.199219 L 5.382812 -2.199219 L 5.363281 -2.105469 C 5.171875 -1.15625 4.589844 -0.515625 3.492188 -0.515625 C 2.191406 -0.515625 1.367188 -1.683594 1.367188 -3.308594 C 1.367188 -4.90625 2.199219 -6.082031 3.546875 -6.082031 C 4.648438 -6.082031 5.230469 -5.441406 5.421875 -4.496094 L 5.441406 -4.398438 L 6.261719 -4.398438 L 6.253906 -4.496094 C 6.121094 -5.785156 5.242188 -6.730469 3.566406 -6.730469 Z M 3.566406 -6.730469 "/></g></g></g><g fill="#11323b" fill-opacity="1"><g transform="translate(190.173518, 286.723136)"><g><path d="M 3.566406 -6.730469 C 1.558594 -6.730469 0.449219 -5.316406 0.449219 -3.300781 C 0.449219 -1.289062 1.558594 0.132812 3.566406 0.132812 C 5.574219 0.132812 6.683594 -1.289062 6.683594 -3.300781 C 6.683594 -5.316406 5.574219 -6.730469 3.566406 -6.730469 Z M 3.566406 -0.515625 C 2.179688 -0.515625 1.367188 -1.585938 1.367188 -3.300781 C 1.367188 -5.019531 2.179688 -6.082031 3.566406 -6.082031 C 4.953125 -6.082031 5.765625 -5.019531 5.765625 -3.300781 C 5.765625 -1.585938 4.953125 -0.515625 3.566406 -0.515625 Z M 3.566406 -0.515625 "/></g></g></g><g fill="#11323b" fill-opacity="1"><g transform="translate(198.369044, 286.723136)"><g><path d="M 7.535156 -6.597656 L 6.207031 -6.597656 L 4.265625 -0.699219 L 2.3125 -6.597656 L 0.957031 -6.597656 L 0.957031 0 L 1.777344 0 L 1.777344 -3.394531 C 1.777344 -4.207031 1.777344 -5.117188 1.757812 -5.832031 C 1.96875 -5.125 2.277344 -4.207031 2.542969 -3.421875 L 3.730469 0 L 4.761719 0 L 5.929688 -3.402344 C 6.207031 -4.207031 6.511719 -5.136719 6.730469 -5.851562 C 6.710938 -5.136719 6.710938 -4.21875 6.710938 -3.394531 L 6.710938 0 L 7.535156 0 Z M 7.535156 -6.597656 "/></g></g></g><g fill="#11323b" fill-opacity="1"><g transform="translate(207.798128, 286.723136)"><g><path d="M 7.535156 -6.597656 L 6.207031 -6.597656 L 4.265625 -0.699219 L 2.3125 -6.597656 L 0.957031 -6.597656 L 0.957031 0 L 1.777344 0 L 1.777344 -3.394531 C 1.777344 -4.207031 1.777344 -5.117188 1.757812 -5.832031 C 1.96875 -5.125 2.277344 -4.207031 2.542969 -3.421875 L 3.730469 0 L 4.761719 0 L 5.929688 -3.402344 C 6.207031 -4.207031 6.511719 -5.136719 6.730469 -5.851562 C 6.710938 -5.136719 6.710938 -4.21875 6.710938 -3.394531 L 6.710938 0 L 7.535156 0 Z M 7.535156 -6.597656 "/></g></g></g><g fill="#11323b" fill-opacity="1"><g transform="translate(217.227212, 286.723136)"><g><path d="M 5.851562 -6.597656 L 5.03125 -6.597656 L 5.03125 -2.515625 C 5.03125 -2.304688 5.03125 -2.105469 5.011719 -1.929688 C 4.933594 -1.101562 4.390625 -0.515625 3.375 -0.515625 C 2.363281 -0.515625 1.816406 -1.101562 1.742188 -1.929688 C 1.722656 -2.105469 1.722656 -2.304688 1.722656 -2.515625 L 1.722656 -6.597656 L 0.898438 -6.597656 L 0.898438 -2.4375 C 0.898438 -2.226562 0.898438 -2.035156 0.917969 -1.84375 C 1.011719 -0.746094 1.757812 0.132812 3.375 0.132812 C 4.992188 0.132812 5.738281 -0.746094 5.832031 -1.84375 C 5.851562 -2.035156 5.851562 -2.226562 5.851562 -2.4375 Z M 5.851562 -6.597656 "/></g></g></g><g fill="#11323b" fill-opacity="1"><g transform="translate(224.896796, 286.723136)"><g><path d="M 6.121094 0 L 6.101562 -6.597656 L 5.296875 -6.597656 L 5.296875 -3.300781 C 5.296875 -2.523438 5.308594 -1.578125 5.328125 -0.804688 L 2.21875 -6.597656 L 0.957031 -6.597656 L 0.957031 0 L 1.777344 0 L 1.777344 -3.300781 C 1.777344 -4.074219 1.769531 -5.019531 1.75 -5.792969 L 4.859375 0 Z M 6.121094 0 "/></g></g></g><g fill="#11323b" fill-opacity="1"><g transform="translate(232.910635, 286.723136)"><g><path d="M 1.777344 0 L 1.777344 -6.597656 L 0.957031 -6.597656 L 0.957031 0 Z M 1.777344 0 "/></g></g></g><g fill="#11323b" fill-opacity="1"><g transform="translate(236.583135, 286.723136)"><g><path d="M 5.851562 -5.929688 L 5.851562 -6.597656 L 0.324219 -6.597656 L 0.324219 -5.929688 L 2.675781 -5.929688 L 2.675781 0 L 3.5 0 L 3.5 -5.929688 Z M 5.851562 -5.929688 "/></g></g></g><g fill="#11323b" fill-opacity="1"><g transform="translate(243.58336, 286.723136)"><g><path d="M 3.335938 -2.601562 L 5.671875 -6.597656 L 4.742188 -6.597656 L 2.964844 -3.394531 L 1.128906 -6.597656 L 0.183594 -6.597656 L 2.515625 -2.601562 L 2.515625 0 L 3.335938 0 Z M 3.335938 -2.601562 "/></g></g></g></svg>